<mxfile host="app.diagrams.net" modified="2023-03-14T11:27:48.094Z" agent="5.0 (Windows NT 10.0; Win64; x64) AppleWebKit/537.36 (KHTML, like Gecko) Chrome/104.0.0.0 Safari/537.36" etag="d5DdSg0RwYOiNZ-aF07G" version="21.0.6" type="github">
  <diagram id="prtHgNgQTEPvFCAcTncT" name="Page-1">
    <mxGraphModel dx="1066" dy="725" grid="1" gridSize="10" guides="1" tooltips="1" connect="1" arrows="1" fold="1" page="1" pageScale="1" pageWidth="827" pageHeight="1169" math="0" shadow="0">
      <root>
        <mxCell id="0" />
        <mxCell id="1" parent="0" />
        <mxCell id="dNxyNK7c78bLwvsdeMH5-11" value="Orgchart" style="swimlane;startSize=20;horizontal=1;containerType=tree;glass=0;labelBackgroundColor=none;fillColor=#B2C9AB;strokeColor=#788AA3;fontColor=#46495D;whiteSpace=wrap;html=1;spacing=0;" parent="1" vertex="1">
          <mxGeometry x="40" y="100" width="710" height="420" as="geometry" />
        </mxCell>
        <mxCell id="DkA19bFUL9khj6VWluVE-1" value="《聚合根》&lt;br&gt;租户" style="rounded=0;whiteSpace=wrap;html=1;fillColor=#B2C9AB;strokeColor=#788AA3;align=center;labelBackgroundColor=none;fontColor=#46495D;" parent="dNxyNK7c78bLwvsdeMH5-11" vertex="1">
          <mxGeometry x="80" y="50" width="120" height="60" as="geometry" />
        </mxCell>
        <mxCell id="DkA19bFUL9khj6VWluVE-3" value="" style="edgeStyle=orthogonalEdgeStyle;rounded=0;orthogonalLoop=1;jettySize=auto;html=1;labelBackgroundColor=none;strokeColor=#788AA3;fontColor=default;" parent="dNxyNK7c78bLwvsdeMH5-11" source="DkA19bFUL9khj6VWluVE-1" target="DkA19bFUL9khj6VWluVE-4" edge="1">
          <mxGeometry relative="1" as="geometry" />
        </mxCell>
        <mxCell id="DkA19bFUL9khj6VWluVE-4" value="实体&lt;br&gt;RegistrationInvitation" style="rounded=0;whiteSpace=wrap;html=1;labelBackgroundColor=none;fillColor=#B2C9AB;strokeColor=#788AA3;fontColor=#46495D;" parent="dNxyNK7c78bLwvsdeMH5-11" vertex="1">
          <mxGeometry x="80" y="130" width="120" height="60" as="geometry" />
        </mxCell>
        <mxCell id="DkA19bFUL9khj6VWluVE-5" value="" style="edgeStyle=orthogonalEdgeStyle;rounded=0;orthogonalLoop=1;jettySize=auto;html=1;labelBackgroundColor=none;strokeColor=#788AA3;fontColor=default;" parent="dNxyNK7c78bLwvsdeMH5-11" source="DkA19bFUL9khj6VWluVE-4" target="DkA19bFUL9khj6VWluVE-6" edge="1">
          <mxGeometry relative="1" as="geometry">
            <mxPoint x="210" y="190" as="sourcePoint" />
          </mxGeometry>
        </mxCell>
        <mxCell id="DkA19bFUL9khj6VWluVE-6" value="领域事件&lt;br&gt;提供租户" style="rounded=0;whiteSpace=wrap;html=1;labelBackgroundColor=none;fillColor=#B2C9AB;strokeColor=#788AA3;fontColor=#46495D;" parent="dNxyNK7c78bLwvsdeMH5-11" vertex="1">
          <mxGeometry x="80" y="220" width="120" height="60" as="geometry" />
        </mxCell>
        <mxCell id="wdpM_v4D5c4M6S48SW0s-1" value="领域事件&lt;br&gt;激活租户" style="rounded=0;whiteSpace=wrap;html=1;labelBackgroundColor=none;fillColor=#B2C9AB;strokeColor=#788AA3;fontColor=#46495D;" vertex="1" parent="dNxyNK7c78bLwvsdeMH5-11">
          <mxGeometry y="300" width="120" height="60" as="geometry" />
        </mxCell>
        <mxCell id="wdpM_v4D5c4M6S48SW0s-6" value="领域事件&lt;br&gt;注销租户" style="rounded=0;whiteSpace=wrap;html=1;labelBackgroundColor=none;fillColor=#B2C9AB;strokeColor=#788AA3;fontColor=#46495D;" vertex="1" parent="dNxyNK7c78bLwvsdeMH5-11">
          <mxGeometry x="130" y="300" width="120" height="60" as="geometry" />
        </mxCell>
      </root>
    </mxGraphModel>
  </diagram>
</mxfile>
